<?xml version="1.0" encoding="UTF-8" standalone="no"?>
<!-- Generator: Adobe Illustrator 27.5.0, SVG Export Plug-In . SVG Version: 6.00 Build 0)  -->

<svg
   version="1.1"
   x="0px"
   y="0px"
   viewBox="0 0 249.733 249.733"
   xml:space="preserve"
   id="svg1205"
   sodipodi:docname="24487849_6960694.svg"
   width="249.733"
   height="249.733"
   xmlns:inkscape="http://www.inkscape.org/namespaces/inkscape"
   xmlns:sodipodi="http://sodipodi.sourceforge.net/DTD/sodipodi-0.dtd"
   xmlns="http://www.w3.org/2000/svg"
   xmlns:svg="http://www.w3.org/2000/svg"><defs
   id="defs1209" /><sodipodi:namedview
   id="namedview1207"
   pagecolor="#505050"
   bordercolor="#ffffff"
   borderopacity="1"
   inkscape:showpageshadow="0"
   inkscape:pageopacity="0"
   inkscape:pagecheckerboard="1"
   inkscape:deskcolor="#505050"
   showgrid="false" />

<path
   style="fill:#ebebeb"
   d="m 128.74269,13.161 c -61.692997,0 -111.704997,50.012 -111.704997,111.705 0,32.584 13.954,61.905 36.209,82.325 l -3.298,19.643 21.053,-6.327 c 16.85,10.195 36.609997,16.064 57.740997,16.064 61.693,0 111.705,-50.012 111.705,-111.705 0,-61.693 -50.012,-111.705 -111.705,-111.705 z"
   id="path362" /><g
   id="Background_Simple"
   style="display:none">
	<path
   style="display:inline;fill:#f5f5f5"
   d="M 448.782,67.744 447.347,65.38 C 435.253,45.449 413.385,33.435 390.33,34.893 c -2.964,0.187 -5.914,0.589 -8.826,1.212 -20.962,4.487 -39.201,20.339 -46.761,40.64 -4.446,11.939 -5.688,25.686 -14.126,35.163 -10.981,12.334 -29.624,12.721 -46.015,12.21 -16.391,-0.511 -35.046,-0.075 -45.974,12.307 -6.844,7.755 -9.019,18.783 -8.467,29.168 1.461,27.496 20.621,52.081 44.987,64.301 24.366,12.22 53.055,13.315 79.722,7.939 37.358,-7.531 72.884,-28.212 94.239,-60.154 21.354,-31.941 26.758,-75.459 9.673,-109.935 z"
   id="path365" />
	
		<circle
   transform="matrix(0.1615,-0.9869,0.9869,0.1615,59.2919,615.6451)"
   style="display:inline;fill:#f5f5f5"
   cx="391.93201"
   cy="272.931"
   id="ellipse367"
   r="25.931" />
</g>



<g
   id="Construction_Hat"
   transform="translate(-217.16331,-10.528)">
	<g
   id="g709">
		<g
   id="g699">
			<path
   style="fill:#455a64"
   d="m 375.372,173.958 c 0.321,-0.41 28.928,-7.374 33.321,-8.445 4.393,-1.071 6.857,-2.357 9.964,0 3.107,2.357 16.463,21.428 18.41,21.107 1.947,-0.321 6.661,-1.179 7.09,-7.393 0.429,-6.214 1.286,-21.321 1.286,-21.321 l -8.375,-5.357 c 0,0 -45.839,6.857 -46.16,6.964 -0.321,0.107 -15.536,11.143 -15.536,11.143 z"
   id="path517" />
			<g
   id="g525">
				<path
   style="fill:#ff725e"
   d="m 398.787,158.374 -11.142,2.202 c 0,0 0.35,13.393 7.1,13.324 6.751,-0.07 7.169,-15.206 7.169,-15.206 z m -3.015,12.578 c -0.903,0 -1.635,-0.877 -1.635,-1.959 0,-1.082 0.732,-1.959 1.635,-1.959 0.903,0 1.635,0.877 1.635,1.959 0,1.082 -0.732,1.959 -1.635,1.959 z"
   id="path519" />
				<path
   style="opacity:0.3"
   d="m 398.751,158.359 -11.142,2.202 c 0,0 0.35,13.393 7.1,13.324 6.751,-0.07 7.169,-15.206 7.169,-15.206 z m -3.015,12.578 c -0.903,0 -1.635,-0.877 -1.635,-1.959 0,-1.082 0.732,-1.959 1.635,-1.959 0.903,0 1.635,0.877 1.635,1.959 0,1.082 -0.732,1.959 -1.635,1.959 z"
   id="path521" />
				<path
   style="fill:#ff725e"
   d="m 400.261,158.359 -11.142,2.202 c 0,0 0.35,13.393 7.1,13.324 6.751,-0.07 7.169,-15.206 7.169,-15.206 z m -3.015,12.578 c -0.903,0 -1.635,-0.877 -1.635,-1.959 0,-1.082 0.732,-1.959 1.635,-1.959 0.903,0 1.635,0.877 1.635,1.959 0,1.082 -0.732,1.959 -1.635,1.959 z"
   id="path523" />
			</g>
			<path
   style="fill:#ff725e"
   d="m 217.485,178.775 c 0,0 -3.428,6.8 18.546,15.455 21.864,8.612 40.626,14.963 86.039,6.403 45.413,-8.56 50.676,-25.662 68.746,-36.361 0,0 44.938,-8.322 47.315,-7.609 2.378,0.713 6.657,11.175 15.217,10.937 8.559,-0.238 11.888,-3.566 13.315,-8.56 1.427,-4.993 -6.657,-10.462 -6.657,-10.462 0,0 0,-9.748 -5.231,-11.413 -5.231,-1.664 -5.231,-1.664 -5.231,-1.664 0,0 -4.042,-30.672 -13.79,-47.553 -9.748,-16.881 -14.979,-27.581 -39.944,-38.28 0,0 -24.728,-19.734 -59.679,-10.699 -34.951,9.035 -56.35,35.427 -56.35,35.427 0,0 -21.286,26.486 -25.565,67.382 0,0 -6.729,-0.831 -7.533,1.657 -0.667,2.067 -0.911,4.353 -1.119,8.426 l -0.258,4.565 c -0.003,-10e-4 -29.142,16.436 -27.821,22.349 z"
   id="path527" />
			<path
   style="opacity:0.3;fill:#ffffff"
   d="m 291.962,70.044 c 0,0 7.389,0.487 9.419,3.329 0,0 4.339,-15.722 -1.624,-15.753 -4.629,-0.023 -7.795,12.424 -7.795,12.424 z"
   id="path529" />
			<g
   id="g533">
				<path
   style="fill:#263238"
   d="m 395.368,49.051 c -0.005,0.008 -0.087,-0.032 -0.248,-0.109 -0.187,-0.091 -0.421,-0.204 -0.712,-0.344 -0.631,-0.291 -1.562,-0.718 -2.792,-1.194 -2.457,-0.952 -6.092,-2.162 -10.714,-3.099 -4.611,-0.961 -10.209,-1.683 -16.434,-1.792 -6.223,-0.048 -13.073,0.88 -19.965,2.915 -6.898,2.029 -13.172,4.917 -18.497,8.138 -2.658,1.61 -5.012,3.424 -7.2,5.126 -2.182,1.713 -4.174,3.364 -5.976,4.889 -3.601,3.054 -6.445,5.609 -8.384,7.402 -0.969,0.897 -1.711,1.604 -2.202,2.095 -0.245,0.246 -0.428,0.437 -0.545,0.57 -0.121,0.134 -0.147,0.206 -0.157,0.213 -0.119,-0.077 0.866,-1.191 2.764,-3.025 1.899,-1.84 4.708,-4.44 8.284,-7.535 1.789,-1.546 3.77,-3.215 5.947,-4.948 2.184,-1.722 4.535,-3.556 7.217,-5.197 5.349,-3.265 11.655,-6.185 18.601,-8.228 6.94,-2.049 13.846,-2.97 20.117,-2.895 6.27,0.136 11.879,0.899 16.506,1.911 4.635,0.988 8.27,2.258 10.714,3.272 1.224,0.507 2.145,0.967 2.763,1.289 0.306,0.167 0.539,0.295 0.69,0.391 0.154,0.093 0.228,0.148 0.223,0.155 z"
   id="path531" />
			</g>
			<g
   id="g537">
				<path
   style="fill:#263238"
   d="m 430.833,79.599 c 0,0 -0.118,-0.144 -0.325,-0.44 -0.216,-0.313 -0.519,-0.752 -0.91,-1.318 -0.405,-0.575 -0.939,-1.264 -1.551,-2.09 -0.656,-0.793 -1.378,-1.735 -2.28,-2.721 -3.519,-3.988 -9.32,-9.306 -17.817,-13.711 -4.216,-2.228 -9.11,-4.173 -14.593,-5.358 -5.472,-1.206 -11.514,-1.631 -17.789,-1.054 -6.27,0.656 -12.821,1.88 -19.281,4.192 -6.459,2.292 -12.777,5.708 -18.504,10.192 -5.758,4.461 -10.57,9.774 -14.77,15.199 -4.192,5.443 -7.798,11.026 -11.044,16.445 -3.259,5.41 -5.816,10.858 -7.958,16.045 -2.145,5.192 -3.747,10.185 -5.001,14.793 -2.543,9.219 -3.608,16.908 -4.33,22.203 -0.191,1.325 -0.322,2.504 -0.574,3.52 -0.291,0.973 -0.34,1.873 -0.072,2.514 0.255,0.65 0.74,0.965 1.049,1.119 0.323,0.155 0.509,0.183 0.506,0.193 0,0 -0.191,-0.003 -0.529,-0.145 -0.322,-0.142 -0.839,-0.452 -1.124,-1.127 -0.298,-0.666 -0.26,-1.604 0.02,-2.597 0.229,-0.99 0.347,-2.18 0.521,-3.503 0.66,-5.303 1.671,-13.017 4.175,-22.273 1.235,-4.627 2.822,-9.642 4.956,-14.859 2.131,-5.212 4.684,-10.688 7.946,-16.128 3.241,-5.438 6.847,-11.039 11.052,-16.511 4.212,-5.452 9.05,-10.801 14.852,-15.296 5.769,-4.518 12.144,-7.961 18.654,-10.263 6.512,-2.323 13.105,-3.543 19.409,-4.189 6.327,-0.569 12.416,-0.123 17.925,1.11 5.52,1.211 10.447,3.193 14.672,5.453 4.246,2.236 7.835,4.711 10.792,7.11 2.944,2.421 5.253,4.768 7.006,6.793 0.894,1 1.606,1.955 2.251,2.76 0.6,0.839 1.122,1.539 1.514,2.125 0.373,0.579 0.662,1.028 0.868,1.349 0.197,0.304 0.284,0.468 0.284,0.468 z"
   id="path535" />
			</g>
			<path
   style="opacity:0.3"
   d="m 427.976,76.084 c -6.902,-10.873 -16.718,-17.581 -25.145,-21.63 -9.427,-4.53 -19.915,-6.284 -30.326,-5.286 -32.694,3.136 -48.75,21.526 -63.221,45.466 -16.307,26.978 -17.113,53.955 -18.119,57.378 -1.007,3.423 2.624,5.282 2.624,5.282 0,0 3.342,-20.747 3.729,-22.388 0.388,-1.641 5.476,-19.42 9.068,-26.399 3.592,-6.978 15.252,-27.547 23.978,-35.133 8.726,-7.585 17.583,-15.212 35.15,-19.234 17.567,-4.022 26.268,-1.488 32.5,0.882 6.232,2.37 17.397,8.287 21.021,11.535 3.625,3.247 8.741,9.527 8.741,9.527 z"
   id="path539" />
			<g
   id="g547">
				<path
   style="fill:#ff725e"
   d="m 377.727,140.456 c 0,0 -0.006,-2.388 3.648,-3.072 3.653,-0.684 49.611,-7.298 51.436,-7.184 1.825,0.114 3.763,1.939 4.105,3.991 0.342,2.053 0,14.711 0,14.711 l -0.128,0.602 c -0.603,2.842 -2.869,5.034 -5.731,5.537 -11.976,2.109 -42.69,7.433 -44.889,6.975 -2.737,-0.57 -4.794,-2.052 -4.794,-2.052 z"
   id="path541" />
				<g
   id="g545">
					<path
   style="fill:#263238"
   d="m 377.727,140.456 c 0.008,-10e-4 0.038,0.112 0.087,0.334 0.052,0.246 0.121,0.573 0.209,0.989 0.179,0.899 0.434,2.183 0.763,3.833 0.649,3.371 1.586,8.234 2.758,14.321 l -0.068,-0.108 c 0.715,0.485 1.527,0.91 2.38,1.269 0.852,0.328 1.784,0.705 2.721,0.742 1.922,-0.047 4.015,-0.397 6.156,-0.675 4.299,-0.618 8.949,-1.368 13.885,-2.184 4.933,-0.839 10.154,-1.727 15.593,-2.651 2.718,-0.475 5.491,-0.96 8.309,-1.453 1.403,-0.182 2.717,-0.723 3.782,-1.651 1.061,-0.913 1.838,-2.168 2.176,-3.547 0.073,-0.268 0.126,-0.567 0.185,-0.827 l -0.006,0.047 c 0.069,-2.692 0.119,-5.354 0.144,-7.975 0.011,-1.311 0.015,-2.611 -0.002,-3.899 -0.01,-0.643 -0.021,-1.286 -0.058,-1.917 -0.023,-0.64 -0.101,-1.227 -0.345,-1.782 -0.462,-1.108 -1.356,-2.042 -2.412,-2.548 -0.537,-0.245 -1.094,-0.387 -1.689,-0.29 -0.586,0.037 -1.212,0.126 -1.812,0.185 -2.42,0.308 -4.79,0.609 -7.101,0.904 -9.231,1.273 -17.54,2.418 -24.525,3.381 -6.95,0.998 -12.58,1.806 -16.502,2.368 -0.973,0.141 -1.826,0.303 -2.509,0.613 -0.687,0.296 -1.188,0.706 -1.5,1.108 -0.63,0.821 -0.59,1.431 -0.619,1.413 0,0 -0.022,-0.139 0.034,-0.402 0.056,-0.26 0.188,-0.649 0.501,-1.074 0.308,-0.426 0.818,-0.865 1.518,-1.185 0.695,-0.335 1.572,-0.517 2.54,-0.672 3.884,-0.647 9.515,-1.5 16.482,-2.532 6.969,-1.024 15.272,-2.235 24.514,-3.492 2.314,-0.3 4.685,-0.608 7.107,-0.922 0.615,-0.062 1.205,-0.15 1.85,-0.192 0.635,-0.105 1.332,0.057 1.921,0.333 1.186,0.57 2.149,1.576 2.669,2.808 0.273,0.612 0.365,1.31 0.387,1.948 0.038,0.647 0.05,1.292 0.061,1.939 0.018,1.295 0.016,2.598 0.006,3.911 -0.023,2.626 -0.072,5.289 -0.141,7.985 l -10e-4,0.025 -0.005,0.022 c -0.06,0.266 -0.108,0.546 -0.189,0.845 -0.364,1.483 -1.2,2.833 -2.342,3.815 -1.129,0.995 -2.598,1.586 -4.031,1.767 -2.819,0.49 -5.593,0.972 -8.312,1.444 -5.443,0.913 -10.667,1.789 -15.603,2.617 -4.94,0.801 -9.595,1.533 -13.904,2.131 -2.167,0.267 -4.199,0.607 -6.242,0.643 -1.044,-0.058 -1.947,-0.443 -2.834,-0.788 -0.876,-0.377 -1.69,-0.808 -2.44,-1.325 l -0.056,-0.039 -0.013,-0.069 c -1.107,-6.105 -1.992,-10.982 -2.605,-14.363 -0.29,-1.655 -0.515,-2.943 -0.673,-3.845 -0.068,-0.418 -0.122,-0.747 -0.162,-0.994 -0.032,-0.223 -0.046,-0.338 -0.037,-0.339 z"
   id="path543" />
				</g>
			</g>
			<g
   style="opacity:0.3"
   id="g551">
				<path
   style="fill:#ffffff"
   d="m 381.469,137.601 c 14.98,-2.396 29.342,-4.145 44.31,-6.569 2.006,-0.325 4.258,-0.683 6.285,-0.834 0.873,-0.065 1.459,-0.026 2.223,0.477 0.459,0.303 1.176,0.631 1.156,1.18 -0.043,1.208 -1.603,1.385 -2.793,1.57 -15.373,2.384 -30.964,4.351 -46.336,6.734 -1.294,0.201 -1.955,-0.051 -3.247,-0.269 -0.97,-0.163 -2.693,-0.596 -4.171,-0.945 0,0.001 1,-1.092 2.573,-1.344 z"
   id="path549" />
			</g>
			<g
   id="g555">
				<path
   style="fill:#263238"
   d="m 386.458,161.164 c -0.036,0.003 -0.106,-0.365 -0.202,-1.033 -0.101,-0.784 -0.222,-1.729 -0.365,-2.834 -0.287,-2.526 -0.656,-5.772 -1.064,-9.361 -0.216,-1.818 -0.421,-3.549 -0.611,-5.145 -0.054,-0.393 -0.101,-0.779 -0.164,-1.146 -0.065,-0.361 -0.1,-0.75 -0.238,-0.977 -0.327,-0.468 -1.032,-0.682 -1.567,-0.857 -2.299,-0.61 -3.822,-0.632 -3.807,-0.732 10e-4,-0.035 0.377,-0.056 1.054,-0.023 0.676,0.04 1.658,0.106 2.852,0.4 0.298,0.076 0.61,0.166 0.926,0.309 0.312,0.135 0.655,0.313 0.907,0.671 0.227,0.38 0.241,0.759 0.324,1.129 0.074,0.376 0.127,0.761 0.189,1.157 0.234,1.583 0.445,3.324 0.653,5.154 0.409,3.659 0.719,6.977 0.913,9.382 0.097,1.202 0.165,2.177 0.2,2.851 0.034,0.677 0.035,1.052 0,1.055 z"
   id="path553" />
			</g>
			<g
   id="g559">
				<path
   style="fill:#263238"
   d="m 301.122,158.793 c 0,-0.008 0.087,-0.014 0.259,-0.016 0.198,0 0.448,0 0.761,0 0.704,0.011 1.686,0.026 2.937,0.045 2.593,0.061 6.298,0.148 10.899,0.257 2.318,0.062 4.86,0.129 7.599,0.202 1.371,0.046 2.787,0.053 4.265,0.156 0.737,0.062 1.494,0.135 2.251,0.395 0.189,0.064 0.376,0.152 0.557,0.261 0.198,0.127 0.361,0.332 0.443,0.522 0.187,0.387 0.265,0.783 0.328,1.179 0.119,0.789 0.121,1.598 0.11,2.395 0.002,0.797 0.003,1.605 0.005,2.421 0.003,1.634 0.006,3.306 0.009,5.012 0.003,3.413 0.007,6.962 0.011,10.619 v 0.021 l -0.002,0.011 c -0.286,1.539 -1.437,2.796 -2.866,3.397 -0.687,0.315 -1.514,0.482 -2.265,0.477 -0.764,0.046 -1.52,0.029 -2.284,0.026 -8.378,-0.222 -16.311,-0.927 -23.534,-1.507 -0.902,-0.077 -1.793,-0.154 -2.673,-0.229 -0.44,-0.039 -0.876,-0.077 -1.31,-0.115 -0.419,-0.028 -0.909,-0.086 -1.33,-0.256 -0.859,-0.325 -1.562,-0.988 -1.944,-1.789 -0.193,-0.4 -0.307,-0.833 -0.339,-1.268 -0.022,-0.447 0.004,-0.837 0.008,-1.243 0.071,-3.217 0.137,-6.215 0.198,-8.956 0.065,-2.733 0.124,-5.208 0.175,-7.389 0.008,-0.54 0.048,-1.097 0.225,-1.593 0.17,-0.502 0.465,-0.924 0.768,-1.284 0.308,-0.349 0.603,-0.684 0.886,-1.003 l 0.201,-0.24 c 0.057,-0.081 0.207,-0.177 0.297,-0.199 0.206,-0.076 0.402,-0.107 0.595,-0.141 1.534,-0.203 2.725,-0.185 3.532,-0.2 0.38,0.004 0.683,0.007 0.918,0.01 0.204,0.005 0.31,0.013 0.31,0.022 0,0.009 -0.106,0.018 -0.312,0.029 -0.235,0.011 -0.537,0.024 -0.916,0.042 -0.801,0.049 -2,0.065 -3.5,0.295 -0.184,0.035 -0.378,0.072 -0.55,0.14 -0.1,0.042 -0.135,0.053 -0.204,0.137 l -0.199,0.247 c -0.276,0.324 -0.565,0.662 -0.867,1.016 -0.289,0.356 -0.554,0.75 -0.703,1.213 -0.156,0.463 -0.189,0.969 -0.19,1.513 -0.029,2.182 -0.062,4.659 -0.098,7.393 -0.041,2.742 -0.086,5.742 -0.134,8.961 -0.018,0.82 -0.074,1.593 0.3,2.301 0.337,0.7 0.956,1.276 1.706,1.555 0.38,0.147 0.76,0.192 1.207,0.222 0.434,0.036 0.87,0.073 1.31,0.11 0.879,0.072 1.77,0.145 2.672,0.219 7.217,0.554 15.162,1.243 23.501,1.464 0.755,0.003 1.513,0.02 2.249,-0.025 0.756,0.001 1.42,-0.139 2.085,-0.432 1.302,-0.533 2.321,-1.704 2.563,-2.985 l -0.002,0.032 c 0.004,-3.658 0.008,-7.21 0.011,-10.625 0.003,-1.707 0.006,-3.379 0.008,-5.014 0.002,-0.817 0.003,-1.625 0.005,-2.423 0.015,-0.797 0.015,-1.568 -0.094,-2.319 -0.055,-0.37 -0.133,-0.74 -0.28,-1.045 -0.073,-0.161 -0.16,-0.262 -0.279,-0.344 -0.144,-0.088 -0.301,-0.165 -0.47,-0.222 -0.674,-0.237 -1.414,-0.319 -2.134,-0.382 -1.448,-0.11 -2.875,-0.126 -4.242,-0.182 -2.736,-0.095 -5.277,-0.184 -7.593,-0.265 -4.599,-0.174 -8.302,-0.315 -10.894,-0.413 -1.251,-0.058 -2.232,-0.103 -2.936,-0.135 -0.312,-0.019 -0.563,-0.035 -0.761,-0.047 -0.172,-0.012 -0.259,-0.023 -0.259,-0.031 z"
   id="path557" />
			</g>
			<g
   id="g563">
				<path
   style="fill:#263238"
   d="m 328.192,185.364 c -0.018,0 -0.035,-0.195 -0.051,-0.564 -0.012,-0.428 -0.026,-0.962 -0.044,-1.617 -0.016,-1.476 -0.038,-3.489 -0.064,-5.943 -0.008,-2.531 -0.018,-5.513 -0.029,-8.812 0.01,-0.833 -0.026,-1.668 0.024,-2.563 0.023,-0.426 0.028,-0.844 -0.128,-1.171 -0.158,-0.321 -0.484,-0.56 -0.873,-0.679 -0.785,-0.236 -1.745,-0.195 -2.668,-0.278 -0.931,-0.061 -1.875,-0.123 -2.83,-0.185 -3.821,-0.257 -7.459,-0.498 -10.77,-0.611 -3.312,-0.135 -6.292,-0.065 -8.804,-0.086 -2.456,-0.019 -4.469,-0.035 -5.945,-0.047 -0.654,-0.016 -1.189,-0.029 -1.617,-0.039 -0.37,-0.015 -0.564,-0.031 -0.564,-0.049 0,-0.018 0.193,-0.037 0.563,-0.056 0.427,-0.016 0.961,-0.035 1.615,-0.059 1.476,-0.029 3.487,-0.07 5.942,-0.119 2.506,-0.027 5.503,-0.135 8.826,-0.026 3.323,0.087 6.969,0.314 10.79,0.571 0.955,0.063 1.898,0.126 2.828,0.188 0.927,0.091 1.838,0.031 2.794,0.311 0.467,0.145 0.935,0.46 1.169,0.945 0.224,0.488 0.192,0.984 0.17,1.416 -0.053,0.839 -0.024,1.706 -0.04,2.531 -0.031,3.302 -0.059,6.286 -0.083,8.819 -0.042,2.455 -0.076,4.468 -0.101,5.945 -0.022,0.654 -0.04,1.188 -0.054,1.616 -0.02,0.368 -0.038,0.562 -0.056,0.562 z"
   id="path561" />
			</g>
			<path
   style="opacity:0.3"
   d="m 327.988,164.357 2.581,-4.053 c 0,0 0.867,0.715 0.728,4.053 -0.097,2.326 0.314,17.93 0,18.384 -0.314,0.454 -1.518,2.672 -3,2.812 0,0 -0.189,-14.671 0,-15.838 0.19,-1.18 0.138,-5.352 -0.309,-5.358 z"
   id="path565" />
			<g
   id="g569">
				<path
   style="fill:#ffffff"
   d="m 295.014,178.357 c -0.069,0.006 -0.21,-0.767 -0.34,-2.028 -0.131,-1.261 -0.241,-3.01 -0.256,-4.944 -0.014,-1.935 0.071,-3.686 0.182,-4.948 0.111,-1.263 0.24,-2.038 0.31,-2.032 0.151,0.012 -0.005,3.131 0.029,6.977 0.023,3.844 0.225,6.961 0.075,6.975 z"
   id="path567" />
			</g>
			<g
   style="opacity:0.3"
   id="g573">
				<path
   style="fill:#ffffff"
   d="m 328.914,160.455 c -0.451,-0.813 -1.551,-0.913 -2.48,-0.957 -9.297,-0.432 -18.358,-0.78 -27.793,-0.607 -0.956,0.017 -1.857,-0.069 -2.741,0.294 -0.885,0.363 -1.92,2.079 -2.227,3.039 l 0.107,0.132 c 9.762,0.345 19.523,0.69 29.284,1.035 1.062,0.038 2.128,0.075 3.184,-0.048 0.772,-0.09 1.569,-0.283 2.154,-0.794 0.587,-0.511 0.889,-1.414 0.512,-2.094 z"
   id="path571" />
			</g>
			<g
   id="g581">
				<path
   style="fill:#ff725e"
   d="m 331.417,162.205 c 0,0 13.633,-0.477 14.612,-0.869 0.979,-0.392 20.365,-15.568 25.065,-17.917 4.7,-2.35 7.522,-3.114 7.522,-3.114 0,0 1.629,-0.074 2.048,2.379 0.348,2.036 2.579,18.285 2.677,18.481 0.098,0.196 -27.128,19.362 -30.555,19.852 -3.427,0.49 -21.488,1.223 -21.488,1.223 z"
   id="path575" />
				<g
   id="g579">
					<path
   style="fill:#263238"
   d="m 331.417,162.205 c 0.006,0.006 0.011,0.129 0.016,0.364 0.003,0.258 0.007,0.601 0.013,1.037 0.005,0.933 0.011,2.262 0.019,3.969 0.001,3.459 0.004,8.443 0.006,14.665 l -0.182,-0.175 c 3.464,-0.171 7.329,-0.362 11.532,-0.569 2.102,-0.115 4.288,-0.24 6.547,-0.4 1.124,-0.091 2.287,-0.156 3.42,-0.319 1.036,-0.273 2.103,-0.92 3.142,-1.484 4.166,-2.404 8.411,-5.237 12.815,-8.19 4.391,-2.973 8.941,-6.097 13.51,-9.418 l 0.607,-0.455 0.143,-0.114 0.071,-0.057 c 0.061,-0.047 -0.046,0.011 -0.023,0.131 0.058,0.141 0.053,0.053 0.034,0.015 l -0.029,-0.125 -0.037,-0.212 -0.227,-1.508 c -0.144,-1.001 -0.286,-1.996 -0.429,-2.986 -0.279,-1.979 -0.556,-3.935 -0.828,-5.862 -0.274,-1.926 -0.543,-3.823 -0.808,-5.687 -0.153,-0.915 -0.228,-1.892 -0.465,-2.713 -0.129,-0.413 -0.329,-0.795 -0.612,-1.085 -0.278,-0.279 -0.681,-0.469 -1.027,-0.476 l 0.053,-0.008 c -1.836,0.549 -3.61,1.289 -5.31,2.054 -0.847,0.39 -1.696,0.777 -2.492,1.212 -0.797,0.423 -1.556,0.927 -2.309,1.409 -2.989,1.984 -5.763,4.009 -8.382,5.919 -5.241,3.825 -9.775,7.316 -13.665,10.074 l -0.405,0.245 c -0.144,0.055 -0.315,0.086 -0.459,0.109 -0.291,0.037 -0.579,0.074 -0.86,0.095 -0.564,0.054 -1.111,0.087 -1.643,0.124 -1.062,0.057 -2.06,0.11 -2.992,0.16 -1.855,0.072 -3.445,0.134 -4.751,0.185 -1.274,0.034 -2.266,0.06 -2.969,0.078 -0.319,0.003 -0.571,0.005 -0.766,0.007 -0.17,0.003 -0.248,-0.006 -0.258,-0.009 -0.01,-0.004 0.087,-0.018 0.259,-0.031 0.195,-0.013 0.447,-0.029 0.765,-0.049 0.702,-0.038 1.693,-0.091 2.966,-0.159 1.303,-0.071 2.892,-0.158 4.745,-0.26 0.93,-0.061 1.927,-0.126 2.986,-0.195 0.529,-0.042 1.076,-0.081 1.633,-0.14 0.281,-0.024 0.559,-0.063 0.842,-0.101 0.139,-0.025 0.262,-0.047 0.387,-0.093 l 0.349,-0.22 c 3.842,-2.778 8.366,-6.309 13.588,-10.158 2.612,-1.926 5.379,-3.962 8.377,-5.967 0.759,-0.49 1.516,-0.997 2.342,-1.439 0.816,-0.448 1.658,-0.835 2.514,-1.232 1.718,-0.778 3.483,-1.523 5.381,-2.095 l 0.03,-0.009 0.024,0.001 c 1.133,0.025 1.876,0.987 2.139,1.904 0.272,0.955 0.328,1.854 0.489,2.793 0.267,1.863 0.539,3.761 0.816,5.688 0.274,1.927 0.551,3.882 0.832,5.861 0.142,0.989 0.285,1.984 0.429,2.984 l 0.226,1.499 0.027,0.164 0.008,0.062 c -0.004,0.026 0.013,0.003 0.004,0.183 -0.021,0.165 -0.169,0.273 -0.16,0.263 l -0.078,0.063 -0.155,0.124 -0.616,0.462 c -4.585,3.332 -9.133,6.45 -13.535,9.421 -4.414,2.951 -8.665,5.774 -12.866,8.181 -0.529,0.295 -1.057,0.584 -1.595,0.853 -0.549,0.258 -1.061,0.537 -1.706,0.674 -1.185,0.165 -2.328,0.223 -3.463,0.311 -2.265,0.151 -4.453,0.266 -6.556,0.371 -4.205,0.181 -8.073,0.348 -11.54,0.498 l -0.184,0.008 0.002,-0.184 c 0.078,-6.265 0.14,-11.283 0.183,-14.766 0.029,-1.691 0.051,-3.007 0.067,-3.931 0.01,-0.423 0.019,-0.756 0.025,-1.006 0.006,-0.227 0.013,-0.339 0.019,-0.333 z"
   id="path577" />
				</g>
			</g>
			<g
   id="g589">
				<path
   style="fill:none"
   d="m 217.313,180.792 0.044,-0.045 c 0,0 -0.922,2.704 17.618,11.395 6.026,2.824 13.35,4.862 20.492,6.326 15.522,3.181 31.452,3.811 47.213,2.189 5.356,-0.552 11.01,-1.279 15.643,-2.207 11.961,-2.397 21.022,-3.884 32.307,-8.331 11.733,-4.624 13.597,-7.373 20.543,-13.262 5.373,-4.555 9.651,-8.843 17.491,-11.521 0.658,-0.428 1.33,-0.849 2.023,-1.259 0,0 40.931,-7.58 46.731,-7.651 0.51,-0.029 0.944,-0.035 1.288,-0.014 4.983,0.302 7.312,6.832 13.893,8.458 7.036,1.739 11.126,-1.294 12.921,-3.223 0.513,-0.899 0.907,-1.88 1.207,-2.93 1.427,-4.993 -6.657,-10.462 -6.657,-10.462 0,0 -0.192,-9.62 -5.423,-11.284 -5.231,-1.664 -5.231,-1.664 -5.231,-1.664 0,0 -4.042,-30.672 -13.79,-47.553 -9.748,-16.881 -14.979,-27.58 -39.944,-38.28 0,0 -24.727,-19.734 -59.679,-10.699 -34.951,9.035 -56.35,35.427 -56.35,35.427 0,0 -21.286,26.486 -25.565,67.382 0,0 -6.729,-0.831 -7.533,1.657 -0.667,2.067 -0.911,4.353 -1.119,8.426 l -0.258,4.565 c 0,0 -29.139,16.437 -27.818,22.35 -0.003,-0.002 -0.408,0.802 -0.047,2.21 z"
   id="path583" />
				<path
   style="opacity:0.3"
   d="m 452.598,164.87 c -6.581,-1.626 -8.91,-8.156 -13.893,-8.458 -0.343,-0.021 -0.777,-0.015 -1.288,0.014 0.277,-0.003 0.476,0.01 0.585,0.042 2.378,0.713 6.657,11.175 15.217,10.937 6.759,-0.188 10.375,-2.384 12.3,-5.758 -1.795,1.929 -5.885,4.962 -12.921,3.223 z"
   id="path585" />
				<path
   style="opacity:0.3"
   d="m 350.63,190.118 c -11.284,4.447 -20.345,5.934 -32.307,8.331 -4.633,0.928 -10.287,1.655 -15.643,2.207 -15.761,1.623 -31.692,0.993 -47.213,-2.189 -7.142,-1.464 -14.466,-3.501 -20.492,-6.326 -18.54,-8.691 -17.618,-11.395 -17.618,-11.395 l -0.044,0.045 c 0.69,2.685 4.172,7.565 18.589,13.243 21.864,8.612 40.626,14.963 86.039,6.403 43.672,-8.231 50.215,-24.362 66.723,-35.102 -7.84,2.678 -12.118,6.965 -17.491,11.521 -6.946,5.889 -8.811,8.638 -20.543,13.262 z"
   id="path587" />
			</g>
			<g
   id="g593">
				<path
   style="fill:#263238"
   d="m 433.196,133.155 c 0.003,0.018 -0.162,0.06 -0.478,0.124 -0.377,0.07 -0.835,0.154 -1.389,0.257 -1.29,0.214 -3.021,0.5 -5.123,0.848 -4.33,0.693 -10.318,1.616 -16.937,2.603 -6.621,0.988 -12.618,1.853 -16.963,2.453 -2.113,0.281 -3.852,0.512 -5.148,0.684 -0.559,0.064 -1.022,0.117 -1.403,0.16 -0.322,0.031 -0.492,0.038 -0.494,0.021 -0.003,-0.018 0.163,-0.06 0.48,-0.125 0.377,-0.07 0.836,-0.154 1.39,-0.257 1.29,-0.213 3.021,-0.5 5.124,-0.848 4.33,-0.693 10.317,-1.616 16.936,-2.603 6.616,-0.987 12.611,-1.852 16.956,-2.452 2.113,-0.281 3.853,-0.512 5.15,-0.684 0.56,-0.064 1.023,-0.117 1.405,-0.16 0.32,-0.031 0.491,-0.039 0.494,-0.021 z"
   id="path591" />
			</g>
			<g
   id="g597">
				<path
   style="fill:#263238"
   d="m 292.688,179.441 c -10e-4,0.036 -0.634,0.046 -1.781,0.033 -1.147,-0.003 -2.806,-0.085 -4.85,-0.256 -4.087,-0.338 -9.719,-1.187 -15.753,-2.891 -3.013,-0.863 -5.833,-1.85 -8.359,-2.844 -2.515,-1.021 -4.744,-2.028 -6.568,-2.967 -1.829,-0.929 -3.282,-1.734 -4.257,-2.336 -0.981,-0.594 -1.514,-0.937 -1.495,-0.968 0.018,-0.031 0.586,0.253 1.595,0.791 1.004,0.547 2.479,1.3 4.32,2.182 1.838,0.893 4.071,1.86 6.582,2.851 2.522,0.965 5.329,1.932 8.325,2.79 5.998,1.694 11.585,2.595 15.647,3.025 2.031,0.217 3.681,0.355 4.823,0.42 1.139,0.075 1.771,0.134 1.771,0.17 z"
   id="path595" />
			</g>
			<g
   id="g601">
				<path
   style="fill:#263238"
   d="m 244.863,155.303 c 0.018,0.002 0.02,0.171 0.006,0.492 -0.023,0.381 -0.05,0.843 -0.084,1.401 -0.102,1.296 -0.238,3.035 -0.404,5.146 -0.094,1.094 -0.195,2.282 -0.304,3.552 -0.053,0.631 -0.107,1.283 -0.164,1.953 -0.026,0.531 0.711,0.798 1.369,0.882 1.369,0.163 2.905,-0.007 4.354,-0.434 0.179,-0.057 0.356,-0.122 0.518,-0.2 0.153,-0.061 0.338,-0.205 0.327,-0.218 0.059,-0.294 0.115,-0.753 0.165,-1.133 0.093,-0.803 0.188,-1.617 0.284,-2.441 0.355,-3.302 0.692,-6.444 1,-9.317 0.159,-1.429 0.311,-2.789 0.453,-4.068 0.185,-1.272 0.419,-2.442 0.603,-3.518 0.384,-2.084 0.7,-3.8 0.936,-5.079 0.112,-0.548 0.204,-1.002 0.28,-1.376 0.07,-0.314 0.115,-0.476 0.133,-0.473 0.018,0.003 0.007,0.172 -0.029,0.491 -0.05,0.378 -0.111,0.837 -0.184,1.391 -0.194,1.284 -0.455,3.006 -0.771,5.097 -0.16,1.075 -0.373,2.251 -0.539,3.516 -0.127,1.279 -0.263,2.639 -0.405,4.067 -0.296,2.875 -0.62,6.021 -0.96,9.326 -0.097,0.826 -0.193,1.643 -0.287,2.449 -0.061,0.42 -0.086,0.764 -0.195,1.246 -0.186,0.354 -0.399,0.389 -0.589,0.502 -0.195,0.092 -0.389,0.162 -0.583,0.223 -1.553,0.445 -3.091,0.609 -4.58,0.423 -0.371,-0.059 -0.743,-0.146 -1.095,-0.332 -0.343,-0.176 -0.693,-0.577 -0.662,-1.023 0.053,-0.731 0.131,-1.352 0.192,-2 0.131,-1.267 0.254,-2.452 0.367,-3.543 0.233,-2.104 0.425,-3.836 0.568,-5.128 0.072,-0.555 0.132,-1.014 0.181,-1.392 0.048,-0.317 0.081,-0.483 0.099,-0.482 z"
   id="path599" />
			</g>
			<g
   id="g605">
				<path
   style="fill:#263238"
   d="m 243.98,159.827 c 0.033,0.07 -1.271,0.741 -3.363,1.85 -2.092,1.108 -4.963,2.673 -8.067,4.517 -3.104,1.847 -5.85,3.621 -7.823,4.929 -1.974,1.308 -3.186,2.132 -3.232,2.07 -0.021,-0.029 0.256,-0.271 0.775,-0.686 0.518,-0.416 1.285,-0.993 2.248,-1.688 1.925,-1.39 4.651,-3.22 7.766,-5.074 3.116,-1.851 6.026,-3.371 8.167,-4.398 1.07,-0.514 1.944,-0.912 2.557,-1.169 0.612,-0.256 0.957,-0.383 0.972,-0.351 z"
   id="path603" />
			</g>
			<g
   id="g609">
				<path
   style="fill:#263238"
   d="m 246.081,148.411 c 0.009,-0.119 1.525,-0.21 3.409,-0.212 1.883,10e-4 3.409,0.108 3.41,0.252 0.001,0.143 -1.525,0.27 -3.41,0.268 -1.882,0.003 -3.42,-0.139 -3.409,-0.308 z"
   id="path607" />
			</g>
			<g
   id="g613">
				<path
   style="fill:#263238"
   d="m 454.819,159.962 c -0.036,0.001 -0.094,-0.539 -0.167,-1.516 -0.068,-1.073 -0.157,-2.465 -0.263,-4.141 -0.094,-1.78 -0.203,-3.855 -0.323,-6.143 -0.058,-1.161 -0.119,-2.375 -0.181,-3.632 -0.038,-0.606 -0.153,-1.219 -0.546,-1.609 -0.378,-0.393 -1.032,-0.514 -1.631,-0.475 -0.529,0.05 -0.977,0.56 -1.399,1.039 -0.231,0.238 -0.415,0.515 -0.818,0.704 -0.101,0.045 -0.235,0.068 -0.366,0.048 -0.138,-0.04 -0.276,-0.114 -0.325,-0.172 -0.154,-0.123 -0.253,-0.248 -0.367,-0.371 -0.818,-0.998 -1.51,-1.974 -2.257,-2.856 -1.468,-1.77 -2.998,-3.184 -4.44,-4.145 -1.449,-0.965 -2.682,-1.671 -3.539,-2.135 -0.859,-0.466 -1.359,-0.667 -1.349,-0.698 0.011,-0.038 0.545,0.102 1.439,0.516 0.895,0.414 2.156,1.071 3.65,2.008 1.503,0.944 3.095,2.364 4.605,4.144 0.762,0.879 1.49,1.882 2.275,2.831 0.1,0.108 0.203,0.23 0.3,0.303 0.058,0.078 0.081,0.007 0.078,0.101 0.033,-0.067 0.058,-0.016 0.104,-0.053 0.186,-0.077 0.414,-0.337 0.621,-0.57 0.425,-0.458 0.89,-1.102 1.739,-1.214 0.708,-0.044 1.493,0.076 2.046,0.628 0.544,0.555 0.647,1.312 0.688,1.94 0.052,1.257 0.103,2.47 0.151,3.631 0.079,2.293 0.151,4.373 0.212,6.158 0.04,1.681 0.073,3.077 0.098,4.153 0.011,0.982 0.001,1.525 -0.035,1.526 z"
   id="path611" />
			</g>
			<g
   id="g617">
				<path
   style="fill:#263238"
   d="m 448.546,143.595 c -0.124,-0.075 0.892,-1.746 1.006,-4.116 0.152,-2.343 -0.117,-4.281 0.056,-4.3 0.11,-0.022 0.619,1.892 0.464,4.34 -0.087,1.219 -0.404,2.307 -0.769,3.024 -0.36,0.722 -0.707,1.087 -0.757,1.052 z"
   id="path615" />
			</g>
			<g
   id="g621">
				<path
   style="fill:#263238"
   d="m 459.553,161.066 c -0.144,0 -0.26,-2.935 -0.26,-6.554 0,-3.621 0.117,-6.555 0.26,-6.555 0.144,0 0.26,2.934 0.26,6.555 0,3.619 -0.117,6.554 -0.26,6.554 z"
   id="path619" />
			</g>
			<g
   id="g625">
				<path
   style="fill:#263238"
   d="m 463.449,157.66 c -0.079,0.004 -0.138,-0.361 -0.351,-0.894 -0.208,-0.533 -0.601,-1.226 -1.188,-1.88 -1.184,-1.305 -2.465,-2.097 -2.358,-2.248 0.04,-0.058 0.384,0.088 0.904,0.394 0.519,0.305 1.218,0.804 1.842,1.508 0.634,0.705 1.019,1.507 1.15,2.117 0.139,0.614 0.065,1.003 0.001,1.003 z"
   id="path623" />
			</g>
			<g
   id="g629">
				<path
   style="fill:#263238"
   d="m 261.025,109.884 c -0.017,-0.007 0.036,-0.179 0.151,-0.503 0.141,-0.377 0.315,-0.841 0.527,-1.406 0.229,-0.611 0.523,-1.352 0.905,-2.196 0.377,-0.846 0.78,-1.822 1.309,-2.862 0.998,-2.109 2.32,-4.556 3.911,-7.2 1.618,-2.627 3.521,-5.442 5.704,-8.257 2.203,-2.802 4.472,-5.332 6.629,-7.539 2.18,-2.185 4.234,-4.061 6.037,-5.541 0.881,-0.765 1.73,-1.393 2.459,-1.964 0.726,-0.575 1.374,-1.041 1.911,-1.411 0.496,-0.342 0.904,-0.624 1.236,-0.852 0.286,-0.19 0.441,-0.283 0.451,-0.268 0.01,0.015 -0.124,0.136 -0.39,0.353 -0.315,0.249 -0.704,0.556 -1.176,0.929 -0.517,0.394 -1.145,0.882 -1.852,1.477 -0.71,0.591 -1.539,1.236 -2.401,2.016 -1.766,1.51 -3.783,3.405 -5.932,5.596 -2.126,2.214 -4.371,4.738 -6.561,7.524 -2.171,2.799 -4.074,5.589 -5.706,8.188 -1.605,2.617 -2.953,5.033 -3.99,7.112 -0.547,1.025 -0.972,1.987 -1.373,2.819 -0.406,0.83 -0.727,1.557 -0.984,2.155 -0.247,0.549 -0.451,1 -0.616,1.366 -0.147,0.31 -0.232,0.47 -0.249,0.464 z"
   id="path627" />
			</g>
			<path
   style="opacity:0.3"
   d="m 244.761,168.868 c 0,0 1.081,-20.235 1.887,-20.416 0.806,-0.182 6.247,-0.277 6.253,0 0.028,1.488 -1.843,19.069 -2.161,19.477 -0.878,1.126 -5.979,0.939 -5.979,0.939 z"
   id="path631" />
			<g
   id="g635">
				<path
   style="fill:#ffffff"
   d="m 346.467,43.041 c 0.007,0.035 -0.49,0.181 -1.394,0.414 -0.906,0.224 -2.207,0.586 -3.799,1.075 -3.185,0.972 -7.508,2.594 -11.997,4.977 -4.484,2.395 -8.243,5.077 -10.828,7.176 -1.295,1.048 -2.322,1.925 -3.013,2.551 -0.698,0.62 -1.096,0.951 -1.121,0.925 -0.025,-0.025 0.325,-0.406 0.983,-1.073 0.65,-0.674 1.644,-1.597 2.916,-2.687 2.539,-2.184 6.297,-4.938 10.819,-7.352 4.525,-2.403 8.908,-3.983 12.138,-4.87 1.615,-0.447 2.936,-0.756 3.858,-0.919 0.919,-0.173 1.431,-0.252 1.438,-0.217 z"
   id="path633" />
			</g>
			<g
   style="opacity:0.3"
   id="g639">
				<path
   style="fill:#ffffff"
   d="m 222.455,172.554 c -2.082,1.38 -2.247,5.252 -0.792,7.281 1.456,2.029 2.495,2.473 4.636,3.759 2.687,1.614 7.207,3.417 10.207,4.243 1.675,0.461 3.419,0.882 5.135,0.615 1.882,-0.293 4.231,-2.008 5.805,-3.08 3.779,-2.573 7.053,-5.715 10.732,-8.43 0.831,-0.613 1.749,-1.421 1.65,-2.449 -0.128,-1.322 -1.756,-1.836 -3.068,-2.037 -3.518,-0.54 -7.037,-1.079 -10.555,-1.619 -1.044,-0.16 -2.111,-0.328 -3.044,-0.824 -0.933,-0.496 -1.722,-1.392 -1.798,-2.446 -0.124,-1.724 1.576,-3.61 0.517,-4.977 -0.919,-1.186 -2.797,-0.484 -4.073,0.305 -4.976,3.076 -10.487,6.259 -15.352,9.659"
   id="path637" />
			</g>
			<g
   id="g643">
				<path
   style="fill:#ffffff"
   d="m 296.756,159.347 c 0.121,0.077 -0.078,0.607 -0.445,1.182 -0.367,0.576 -0.763,0.98 -0.885,0.902 -0.121,-0.077 0.078,-0.607 0.446,-1.182 0.367,-0.575 0.763,-0.979 0.884,-0.902 z"
   id="path641" />
			</g>
			<g
   id="g647">
				<path
   style="fill:#ffffff"
   d="m 261.049,195.221 c -10e-4,0.018 -0.163,0.021 -0.471,0.011 -0.368,-0.019 -0.812,-0.042 -1.345,-0.07 -0.585,-0.03 -1.299,-0.083 -2.123,-0.187 -0.825,-0.099 -1.769,-0.183 -2.8,-0.365 -2.072,-0.302 -4.517,-0.805 -7.198,-1.501 -2.672,-0.726 -5.575,-1.663 -8.54,-2.861 -2.958,-1.219 -5.688,-2.58 -8.106,-3.93 -2.403,-1.378 -4.503,-2.729 -6.194,-3.963 -0.864,-0.591 -1.598,-1.191 -2.257,-1.698 -0.662,-0.502 -1.209,-0.964 -1.648,-1.352 -0.4,-0.353 -0.733,-0.647 -1.01,-0.891 -0.227,-0.208 -0.34,-0.324 -0.329,-0.337 0.012,-0.014 0.148,0.075 0.396,0.257 0.293,0.223 0.646,0.491 1.07,0.814 0.457,0.362 1.02,0.799 1.697,1.277 0.673,0.482 1.418,1.059 2.292,1.628 1.71,1.189 3.817,2.499 6.217,3.845 2.415,1.318 5.132,2.657 8.068,3.867 2.944,1.189 5.821,2.132 8.469,2.88 2.656,0.717 5.079,1.254 7.132,1.601 1.022,0.205 1.958,0.314 2.776,0.44 0.818,0.131 1.526,0.213 2.106,0.274 0.529,0.066 0.968,0.121 1.334,0.167 0.306,0.044 0.465,0.075 0.464,0.094 z"
   id="path645" />
			</g>
			<path
   style="opacity:0.3;fill:#ffffff"
   d="m 331.417,166.077 c 0,0 12.085,0.432 15.234,-1.173 3.149,-1.605 20.625,-14.758 23.712,-17.784 3.087,-3.026 10.184,-4.469 10.132,-4.722 -0.148,-0.731 -0.62,-1.326 -1.039,-1.728 -0.39,-0.376 -0.966,-0.479 -1.464,-0.267 -1.955,0.834 -7.208,3.101 -8.483,3.931 -1.576,1.025 -23.481,17.002 -23.481,17.002 l -14.612,0.869 v 3.872 z"
   id="path649" />
			<g
   id="g653">
				<path
   style="fill:#263238"
   d="m 355.372,52.694 c 0.003,0.009 -0.098,0.052 -0.297,0.127 -0.226,0.082 -0.518,0.189 -0.886,0.322 -0.401,0.141 -0.882,0.31 -1.445,0.508 -0.574,0.191 -1.232,0.423 -1.95,0.745 -2.927,1.134 -7.042,3.127 -11.712,6.24 -1.196,0.736 -2.333,1.676 -3.579,2.565 -1.215,0.931 -2.435,1.96 -3.695,3.022 -2.461,2.197 -5.013,4.637 -7.475,7.415 -4.961,5.521 -9.714,12.21 -13.94,19.664 -8.467,14.95 -13.255,29.889 -15.882,40.794 -1.325,5.464 -2.185,9.936 -2.724,13.034 -0.289,1.546 -0.463,2.756 -0.612,3.57 -0.07,0.385 -0.125,0.691 -0.168,0.928 -0.041,0.209 -0.066,0.315 -0.075,0.314 -0.009,-0.001 -0.001,-0.11 0.022,-0.321 0.03,-0.239 0.068,-0.547 0.116,-0.936 0.116,-0.82 0.258,-2.035 0.516,-3.588 0.479,-3.112 1.285,-7.601 2.566,-13.086 2.54,-10.947 7.289,-25.958 15.787,-40.964 4.243,-7.483 9.031,-14.197 14.037,-19.729 2.484,-2.784 5.062,-5.226 7.549,-7.421 1.274,-1.061 2.507,-2.087 3.735,-3.015 1.26,-0.886 2.409,-1.821 3.619,-2.551 4.722,-3.092 8.883,-5.043 11.842,-6.123 0.726,-0.309 1.391,-0.526 1.972,-0.703 0.57,-0.18 1.057,-0.333 1.464,-0.461 0.375,-0.113 0.672,-0.204 0.903,-0.273 0.203,-0.06 0.309,-0.085 0.312,-0.077 z"
   id="path651" />
			</g>
			<path
   style="fill:#ff725e"
   d="m 378.871,168.27 -0.5,-1.3 c 0,0 7.122,-8.967 15.334,-10.811 8.212,-1.844 39.376,-7.818 45.33,-7.583 5.954,0.235 6.73,4.736 6.73,4.736 l -42.075,6.751 -13.105,2.912 z"
   id="path655" />
			<g
   id="g659">
				<path
   style="fill:#263238"
   d="m 217.357,178.58 c 0,0 -0.02,0.251 0.231,0.646 0.239,0.394 0.696,0.921 1.387,1.507 1.356,1.204 3.613,2.669 6.618,4.354 3.014,1.671 6.79,3.58 11.262,5.565 4.507,1.907 9.865,3.526 15.879,4.872 12.02,2.693 26.757,4.308 43.039,3.285 4.067,-0.248 8.224,-0.672 12.459,-1.2 4.241,-0.516 8.527,-1.223 12.876,-2.14 8.707,-1.713 17.764,-3.436 26.594,-6.693 4.403,-1.625 8.733,-3.381 12.639,-5.735 3.913,-2.356 7.127,-5.571 10.532,-8.431 3.369,-2.855 5.963,-6.404 8.935,-9.497 2.921,-3.138 6.35,-5.753 10.138,-7.385 0.936,-0.426 1.911,-0.747 2.867,-1.082 0.979,-0.26 1.943,-0.582 2.917,-0.781 1.94,-0.455 3.861,-0.859 5.758,-1.241 3.793,-0.767 7.49,-1.433 11.068,-2.047 7.158,-1.228 13.847,-2.235 19.974,-3.016 3.065,-0.383 5.987,-0.72 8.778,-0.855 0.702,-0.008 1.396,-0.034 2.09,0.154 0.344,0.072 0.642,0.261 0.961,0.386 0.307,0.15 0.569,0.366 0.853,0.544 1.065,0.805 1.923,1.762 2.722,2.695 1.573,1.89 2.927,3.726 4.355,5.257 1.411,1.534 2.915,2.776 4.51,3.403 1.575,0.61 3.206,0.762 4.395,0.229 0.585,-0.27 1.034,-0.71 1.287,-1.199 0.288,-0.472 0.4,-0.973 0.5,-1.408 0.151,-0.89 0.115,-1.588 0.081,-2.05 -0.037,-0.463 -0.069,-0.7 -0.069,-0.7 0,0 0.067,0.231 0.122,0.695 0.051,0.463 0.105,1.164 -0.031,2.072 -0.094,0.446 -0.199,0.96 -0.49,1.455 -0.254,0.511 -0.721,0.984 -1.333,1.275 -1.254,0.574 -2.913,0.429 -4.536,-0.18 -1.643,-0.629 -3.182,-1.885 -4.616,-3.421 -1.451,-1.534 -2.822,-3.369 -4.396,-5.239 -0.798,-0.921 -1.653,-1.861 -2.684,-2.631 -0.271,-0.168 -0.526,-0.376 -0.816,-0.515 -0.299,-0.113 -0.582,-0.294 -0.899,-0.357 -0.622,-0.168 -1.305,-0.145 -1.993,-0.133 -2.764,0.147 -5.686,0.495 -8.743,0.889 -6.116,0.803 -12.799,1.831 -19.947,3.076 -3.574,0.623 -7.266,1.297 -11.051,2.071 -1.893,0.386 -3.81,0.793 -5.742,1.249 -0.976,0.201 -1.913,0.519 -2.881,0.777 -0.941,0.332 -1.899,0.649 -2.818,1.069 -3.72,1.612 -7.078,4.175 -9.97,7.288 -2.942,3.066 -5.538,6.631 -8.965,9.543 -3.384,2.844 -6.616,6.085 -10.592,8.484 -3.962,2.388 -8.308,4.149 -12.732,5.782 -8.875,3.274 -17.971,4.999 -26.673,6.704 -4.343,0.912 -8.671,1.623 -12.913,2.133 -4.243,0.523 -8.412,0.943 -12.492,1.185 -16.332,1 -31.109,-0.658 -43.149,-3.404 -6.025,-1.374 -11.393,-3.022 -15.912,-4.964 -4.48,-2.019 -8.238,-3.953 -11.247,-5.657 -2.998,-1.716 -5.244,-3.213 -6.589,-4.452 -0.684,-0.602 -1.134,-1.148 -1.363,-1.559 -0.242,-0.411 -0.205,-0.682 -0.185,-0.672 z"
   id="path657" />
			</g>
			<g
   id="g663">
				<path
   style="fill:#263238"
   d="m 414.396,159.747 c 0.007,0.035 -0.376,0.144 -1.074,0.31 -0.699,0.162 -1.714,0.379 -2.974,0.62 -2.643,0.473 -6.066,1.084 -9.85,1.761 -1.911,0.416 -3.803,0.579 -5.453,0.832 -1.661,0.253 -3.116,0.667 -4.282,1.16 -2.334,0.999 -3.533,2.087 -3.596,1.996 -0.022,-0.026 0.269,-0.298 0.829,-0.754 0.577,-0.43 1.439,-1.036 2.619,-1.579 1.175,-0.549 2.666,-1.013 4.352,-1.296 1.694,-0.286 3.52,-0.454 5.435,-0.87 3.849,-0.725 7.356,-1.215 9.884,-1.612 1.178,-0.179 2.179,-0.332 2.999,-0.456 0.708,-0.106 1.104,-0.147 1.111,-0.112 z"
   id="path661" />
			</g>
			<g
   id="g669">
				<path
   style="opacity:0.3;fill:#ffffff"
   d="m 439.83,119.091 c 0,0 -2.693,-23.955 -17.609,-41.796 l -13.823,8.102 c 11.048,15.468 8.172,37.042 8.172,37.042 z"
   id="path665" />
				<path
   style="opacity:0.3;fill:#ffffff"
   d="m 400.424,61.621 c -39.65,-14.683 -62.24,20.806 -62.24,20.806 0,0 15.671,-16.127 48.09,-11.958 7.015,0.902 11.675,2.467 15.829,6.482 l 10.188,-8.982 c -3.505,-2.536 -7.441,-4.708 -11.867,-6.348 z"
   id="path667" />
			</g>
			<g
   id="g673">
				<path
   style="fill:#ffffff"
   d="m 343.797,165.863 c 0.024,0.136 -1.884,0.561 -4.283,0.653 -2.4,0.099 -4.335,-0.173 -4.322,-0.31 0.011,-0.149 1.936,-0.112 4.301,-0.21 2.364,-0.091 4.281,-0.281 4.304,-0.133 z"
   id="path671" />
			</g>
			<g
   id="g677">
				<path
   style="fill:#ffffff"
   d="m 374.173,144.649 c 0.041,0.062 -0.94,0.784 -2.532,1.937 -1.593,1.153 -3.791,2.745 -6.19,4.542 -2.399,1.799 -4.544,3.463 -6.097,4.669 -1.553,1.205 -2.521,1.944 -2.569,1.887 -0.045,-0.053 0.84,-0.892 2.337,-2.173 1.496,-1.281 3.611,-2.995 6.017,-4.8 2.405,-1.802 4.644,-3.351 6.293,-4.428 1.649,-1.077 2.702,-1.691 2.741,-1.634 z"
   id="path675" />
			</g>
			<g
   id="g681">
				<path
   style="fill:#ffffff"
   d="m 247.106,147.126 c -0.142,-0.026 -0.113,-0.827 0.063,-1.79 0.176,-0.963 0.434,-1.722 0.575,-1.697 0.141,0.026 0.113,0.827 -0.063,1.79 -0.176,0.963 -0.434,1.723 -0.575,1.697 z"
   id="path679" />
			</g>
			<g
   id="g685">
				<path
   style="fill:#ffffff"
   d="m 264.238,108.538 c 0.033,0.013 -0.132,0.546 -0.46,1.497 -0.318,0.954 -0.777,2.334 -1.301,4.053 -1.063,3.434 -2.375,8.226 -3.664,13.558 -1.272,5.338 -2.278,10.205 -2.889,13.747 -0.314,1.77 -0.531,3.208 -0.68,4.202 -0.14,0.995 -0.234,1.545 -0.27,1.542 -0.036,-0.003 -0.01,-0.56 0.068,-1.566 0.087,-1.004 0.25,-2.455 0.518,-4.237 0.519,-3.568 1.471,-8.459 2.746,-13.809 1.292,-5.344 2.663,-10.134 3.819,-13.549 0.57,-1.71 1.083,-3.077 1.461,-4.011 0.389,-0.933 0.618,-1.44 0.652,-1.427 z"
   id="path683" />
			</g>
			<g
   id="g689">
				<path
   style="fill:#263238"
   d="m 301.617,72.919 c -0.036,-0.006 -0.004,-0.44 0.085,-1.221 0.114,-0.886 0.255,-1.99 0.423,-3.299 0.157,-1.401 0.527,-3.032 0.506,-4.872 0,-0.929 0.071,-1.906 -0.102,-2.855 -0.17,-0.925 -0.714,-1.838 -1.533,-2.406 -0.767,-0.526 -1.921,-0.397 -2.718,0.015 -0.837,0.444 -1.466,1.19 -2.012,1.915 -1.082,1.471 -1.751,3.004 -2.244,4.305 -0.948,2.626 -1.367,4.323 -1.459,4.296 -0.034,-0.009 0.041,-0.438 0.216,-1.205 0.177,-0.766 0.448,-1.874 0.897,-3.215 0.455,-1.334 1.101,-2.92 2.203,-4.464 0.555,-0.753 1.203,-1.561 2.16,-2.082 0.479,-0.262 1.031,-0.399 1.587,-0.422 0.548,-0.022 1.169,0.068 1.667,0.431 0.945,0.66 1.549,1.684 1.738,2.741 0.181,1.048 0.091,2.034 0.08,2.958 -0.007,1.885 -0.421,3.538 -0.622,4.917 -0.233,1.3 -0.429,2.396 -0.586,3.276 -0.151,0.769 -0.251,1.193 -0.286,1.187 z"
   id="path687" />
			</g>
			<g
   id="g693">
				<path
   style="fill:#ffffff"
   d="m 300.051,73.492 c -0.103,0.119 -1.446,-1.015 -3.41,-1.834 -1.955,-0.84 -3.704,-1.015 -3.69,-1.172 -0.009,-0.131 1.838,-0.188 3.893,0.692 2.062,0.863 3.307,2.229 3.207,2.314 z"
   id="path691" />
			</g>
			<g
   id="g697">
				<path
   style="fill:#ffffff"
   d="m 320.504,45.694 c 0.026,0.075 -1.172,0.543 -3.077,1.364 -1.906,0.819 -4.507,2.021 -7.281,3.538 -2.773,1.521 -5.188,3.064 -6.905,4.228 -1.718,1.163 -2.758,1.92 -2.807,1.857 -0.022,-0.028 0.212,-0.251 0.655,-0.63 0.441,-0.382 1.103,-0.905 1.939,-1.528 1.671,-1.247 4.073,-2.852 6.867,-4.384 2.795,-1.528 5.442,-2.686 7.392,-3.422 0.975,-0.369 1.773,-0.644 2.332,-0.81 0.559,-0.169 0.873,-0.247 0.885,-0.213 z"
   id="path695" />
			</g>
		</g>
		<g
   id="g703">
			<path
   style="fill:#ffffff"
   d="m 346.569,165.894 c 0.009,0.144 -2.897,0.437 -6.489,0.655 -3.593,0.218 -6.513,0.278 -6.521,0.135 -0.009,-0.143 2.896,-0.437 6.49,-0.655 3.592,-0.218 6.512,-0.278 6.52,-0.135 z"
   id="path701" />
		</g>
		<g
   id="g707">
			<path
   style="fill:#ffffff"
   d="m 372.955,145.534 c 0.02,0.03 -0.265,0.267 -0.798,0.672 -0.63,0.468 -1.387,1.031 -2.272,1.689 -1.922,1.419 -4.569,3.389 -7.444,5.627 -2.875,2.24 -5.434,4.323 -7.28,5.84 -0.855,0.697 -1.586,1.293 -2.194,1.789 -0.522,0.418 -0.823,0.636 -0.846,0.609 -0.024,-0.027 0.231,-0.297 0.713,-0.762 0.481,-0.466 1.194,-1.121 2.088,-1.916 1.788,-1.591 4.316,-3.725 7.199,-5.971 2.882,-2.243 5.57,-4.172 7.551,-5.516 0.99,-0.672 1.8,-1.203 2.37,-1.555 0.569,-0.354 0.893,-0.536 0.913,-0.506 z"
   id="path705" />
		</g>
	</g>
</g>

</svg>
